name D:\school\WTK\thesis\model\3dpredictsim\Results\MidTarsalJoint\Fal_s1_bCst_PF_none_ls148_MT_k500_MTP_k10_ig24.mot
datacolumns 128
datarows 4
range 1.68916105 1.72294427
endheader
time	pelvis_tilt	pelvis_list	pelvis_rotation	pelvis_tx	pelvis_ty	pelvis_tz	hip_flexion_l	hip_adduction_l	hip_rotation_l	hip_flexion_r	hip_adduction_r	hip_rotation_r	knee_angle_l	knee_angle_r	ankle_angle_l	ankle_angle_r	subtalar_angle_l	subtalar_angle_r	mtj_angle_l	mtj_angle_r	mtp_angle_l	mtp_angle_r	lumbar_extension	lumbar_bending	lumbar_rotation	arm_flex_l	arm_add_l	arm_rot_l	arm_flex_r	arm_add_r	arm_rot_r	elbow_flex_l	elbow_flex_r	pro_sup_l	pro_sup_r	glut_med1_l/activation	glut_med2_l/activation	glut_med3_l/activation	glut_min1_l/activation	glut_min2_l/activation	glut_min3_l/activation	semimem_l/activation	semiten_l/activation	bifemlh_l/activation	bifemsh_l/activation	sar_l/activation	add_long_l/activation	add_brev_l/activation	add_mag1_l/activation	add_mag2_l/activation	add_mag3_l/activation	tfl_l/activation	pect_l/activation	grac_l/activation	glut_max1_l/activation	glut_max2_l/activation	glut_max3_l/activation	iliacus_l/activation	psoas_l/activation	quad_fem_l/activation	gem_l/activation	peri_l/activation	rect_fem_l/activation	vas_med_l/activation	vas_int_l/activation	vas_lat_l/activation	med_gas_l/activation	lat_gas_l/activation	soleus_l/activation	tib_post_l/activation	flex_dig_l/activation	flex_hal_l/activation	tib_ant_l/activation	per_brev_l/activation	per_long_l/activation	per_tert_l/activation	ext_dig_l/activation	ext_hal_l/activation	ercspn_l/activation	intobl_l/activation	extobl_l/activation	glut_med1_r/activation	glut_med2_r/activation	glut_med3_r/activation	glut_min1_r/activation	glut_min2_r/activation	glut_min3_r/activation	semimem_r/activation	semiten_r/activation	bifemlh_r/activation	bifemsh_r/activation	sar_r/activation	add_long_r/activation	add_brev_r/activation	add_mag1_r/activation	add_mag2_r/activation	add_mag3_r/activation	tfl_r/activation	pect_r/activation	grac_r/activation	glut_max1_r/activation	glut_max2_r/activation	glut_max3_r/activation	iliacus_r/activation	psoas_r/activation	quad_fem_r/activation	gem_r/activation	peri_r/activation	rect_fem_r/activation	vas_med_r/activation	vas_int_r/activation	vas_lat_r/activation	med_gas_r/activation	lat_gas_r/activation	soleus_r/activation	tib_post_r/activation	flex_dig_r/activation	flex_hal_r/activation	tib_ant_r/activation	per_brev_r/activation	per_long_r/activation	per_tert_r/activation	ext_dig_r/activation	ext_hal_r/activation	ercspn_r/activation	intobl_r/activation	extobl_r/activation	
          1.68916105	         -2.92997269	          2.05749084	         -5.19325420	          2.11145131	          0.91875782	          0.00271223	         29.87115733	          3.24489214	         -2.26505216	        -17.00981472	         -0.87130724	          7.28712415	        -11.81235725	         -6.26634407	          6.35760205	         -2.98527000	         -4.43568110	          8.36221733	          0.26587732	          5.68533077	         -0.26055554	         23.48659673	         -2.12762346	         -0.30360296	          1.95046206	         -5.11490123	        -13.46925395	          6.34585960	          5.32799166	        -13.45040624	         15.88429109	         16.88620069	         33.99936031	         86.51662706	         86.51662706	          0.05000349	          0.05000108	          0.05938391	          0.05000031	          0.05000043	          0.05000299	          0.13386267	          0.05938464	          0.20560892	          0.05000159	          0.05000127	          0.10982959	          0.18480348	          0.19364037	          0.16259519	          0.10760810	          0.05938450	          0.05002862	          0.11363823	          0.05938449	          0.05938466	          0.10003132	          0.05000024	          0.05000038	          0.18544305	          0.05000217	          0.05000081	          0.05000023	          0.06390351	          0.06578963	          0.05472149	          0.05920316	          0.05731811	          0.05938410	          0.05000126	          0.05000178	          0.05000268	          0.48391582	          0.29955612	          0.18133370	          0.10184874	          0.46205380	          0.05077460	          0.05938457	          0.12945456	          0.11162909	          0.32968219	          0.09952023	          0.07262029	          0.33720376	          0.21381510	          0.11523691	          0.05000166	          0.05000043	          0.05000033	          0.06194115	          0.11656954	          0.05000018	          0.05000020	          0.05000029	          0.05000082	          0.05000067	          0.33902156	          0.05000081	          0.05000067	          0.05015090	          0.05001164	          0.05000205	          0.43127892	          0.64666047	          0.05000046	          0.05000219	          0.05774511	          0.24200062	          0.05000527	          0.05000278	          0.05000277	          0.29155964	          0.40473563	          0.32363420	          0.30348015	          0.30404059	          0.39564288	          0.05000013	          0.05053848	          0.09175438	          0.05000067	          0.05000020	          0.05000071	          0.05000003	          0.05000003	          0.05000005	
          1.70042213	         -2.92915855	          2.17240864	         -5.50410961	          2.12828591	          0.91773265	          0.00249097	         29.32860585	          3.64677883	         -2.09381545	        -16.96670733	         -1.20422667	          7.09044659	        -11.88022618	         -8.02527338	          5.68134425	         -3.49713936	         -4.83729015	          9.39962298	          0.23815674	          5.12937044	         -0.22624015	         24.96689060	         -1.93661788	         -0.51754019	          2.02627945	         -5.99573941	        -13.46386279	          6.09827428	          5.10347342	        -13.45719493	         16.27079560	         16.50552304	         35.14560966	         86.51662706	         86.51662706	          0.05110626	          0.05000077	          0.05000023	          0.05938499	          0.05937622	          0.05000059	          0.11270903	          0.05000052	          0.17311785	          0.05000060	          0.05000205	          0.11817946	          0.24079155	          0.23335213	          0.15512078	          0.09422862	          0.05000059	          0.07056301	          0.09568226	          0.05000070	          0.05000054	          0.11424071	          0.07052937	          0.07052811	          0.53473478	          0.19071599	          0.18120059	          0.08376592	          0.18511071	          0.18667322	          0.15972764	          0.05000003	          0.05000008	          0.05000001	          0.05000041	          0.05000296	          0.05000260	          0.53916135	          0.25222091	          0.18379310	          0.22151881	          0.48473952	          0.05938674	          0.05000031	          0.10899745	          0.09398886	          0.27758428	          0.08379354	          0.06114452	          0.28391723	          0.18002699	          0.09702664	          0.05000634	          0.05000125	          0.05000152	          0.05215308	          0.09814903	          0.09734666	          0.09434153	          0.05043343	          0.05008114	          0.07031391	          0.28544781	          0.06260358	          0.05001014	          0.05000438	          0.05000314	          0.05000449	          0.36312600	          0.54478009	          0.05000101	          0.05001417	          0.05938345	          0.20375845	          0.05004647	          0.17718972	          0.13366347	          0.24548579	          0.34077719	          0.29285501	          0.27410978	          0.25599721	          0.33322146	          0.05000010	          0.05000107	          0.07935981	          0.05000039	          0.05000011	          0.05000048	          0.05000011	          0.07142010	          0.05078800	
          1.71168320	         -2.92429211	          2.28942791	         -5.78721413	          2.14547056	          0.91675300	          0.00228931	         28.66335479	          3.97121687	         -1.85558025	        -16.86791701	         -1.53771838	          6.88078527	        -12.37104878	         -9.87633980	          5.01469183	         -4.13100066	         -5.24504977	         10.41020241	          0.08129069	          4.43146241	         -0.26074172	         26.42662244	         -1.72075929	         -0.74319812	          2.09100818	         -6.91420241	        -13.46437813	          5.89630991	          4.79414101	        -13.46128790	         16.58569788	         16.18031658	         36.27232277	         86.51662706	         86.51662706	          0.22114855	          0.05000053	          0.05005516	          0.05000084	          0.05000044	          0.21492930	          0.11566756	          0.08702477	          0.15583926	          0.05000101	          0.05002894	          0.09950423	          0.20274052	          0.19647687	          0.13060820	          0.10819158	          0.05000174	          0.05941402	          0.08056390	          0.05000419	          0.10323559	          0.09618807	          0.05938437	          0.05938393	          0.45023310	          0.16057815	          0.16486069	          0.07052878	          0.15585856	          0.15717417	          0.13448666	          0.05355238	          0.05510124	          0.05230939	          0.05000297	          0.05000311	          0.05000264	          0.45396052	          0.27151679	          0.15474962	          0.18651330	          0.55905965	          0.05000216	          0.05000004	          0.12049201	          0.07913623	          0.35506527	          0.07055207	          0.05148225	          0.23905148	          0.15157828	          0.08169404	          0.05000934	          0.05000308	          0.05000209	          0.05000058	          0.08263957	          0.13315596	          0.11380405	          0.05938701	          0.05938615	          0.05938430	          0.24034084	          0.08359726	          0.05144391	          0.05008618	          0.05010969	          0.05936688	          0.30574379	          0.53667086	          0.05330050	          0.05000459	          0.05000041	          0.17155947	          0.11415690	          0.14919033	          0.11254206	          0.20669276	          0.28692572	          0.24657645	          0.23079363	          0.21554354	          0.28056439	          0.05000007	          0.05000077	          0.10894293	          0.05000034	          0.05000014	          0.05000048	          0.05166526	          0.06013391	          0.05938456	
          1.72294427	         -2.91705312	          2.40833183	         -6.03480760	          2.16284265	          0.91583700	          0.00208262	         27.87754360	          4.24187939	         -1.60606792	        -16.68715260	         -1.86694238	          6.66798528	        -12.83428083	        -11.84645907	          4.41313771	         -4.90602787	         -5.65624213	         11.37184440	          0.14473863	          3.63771332	         -0.29480091	         27.79176637	         -1.49718445	         -0.97952083	          2.14625995	         -7.83006473	        -13.46987201	          5.75280019	          4.42126398	        -13.46729417	         16.83771350	         15.88910089	         37.37341972	         86.51662706	         86.51662706	          0.30797132	          0.26893908	          0.27261731	          0.15724804	          0.21316884	          0.18096833	          0.09738919	          0.07327301	          0.13121274	          0.07951768	          0.05000608	          0.08378009	          0.17070241	          0.16542881	          0.10996927	          0.12864452	          0.05000202	          0.05002578	          0.06783352	          0.19265070	          0.16187917	          0.10351363	          0.05000029	          0.05000027	          0.37908492	          0.13520301	          0.13880981	          0.05938357	          0.13124185	          0.14951303	          0.11395440	          0.05000087	          0.05000201	          0.05000017	          0.05000017	          0.05000051	          0.05000065	          0.57514343	          0.33590721	          0.17898008	          0.51391156	          0.53425629	          0.23598315	          0.07145214	          0.10145148	          0.06663071	          0.31904027	          0.05940309	          0.05000019	          0.37554312	          0.12762524	          0.06878442	          0.05000479	          0.05000041	          0.05000032	          0.05000078	          0.06965367	          0.11307372	          0.09582034	          0.05000272	          0.05000296	          0.05000135	          0.23928121	          0.07038937	          0.05000112	          0.05000296	          0.05000169	          0.05000105	          0.25742917	          0.50481260	          0.05000020	          0.05000125	          0.05000064	          0.14444906	          0.09611848	          0.12987251	          0.14033773	          0.17403002	          0.24158414	          0.20761106	          0.19432242	          0.18148238	          0.23622824	          0.05578877	          0.09191577	          0.12056051	          0.05000100	          0.09536240	          0.05000116	          0.06329841	          0.05063123	          0.05000032	
